<svg width="73" height="5" viewBox="0 0 73 5" fill="none" xmlns="http://www.w3.org/2000/svg">
<path d="M1.23978e-05 2.18388C1.23978e-05 2.18388 0.908359 -2.74881 7.10815 2.2124C7.10815 2.2124 1.26322 7.22405 1.23978e-05 2.18388ZM1.4253 2.21167C1.42482 2.3423 1.53034 2.44856 1.66098 2.44905C1.79161 2.44954 1.89787 2.34401 1.89836 2.21362C1.89885 2.08298 1.79332 1.97672 1.66293 1.97623C1.53205 1.9755 1.42579 2.08103 1.4253 2.21167ZM5.57101 2.22165C5.57101 2.22165 5.17155 0.736901 2.32682 2.20874C2.32682 2.20874 4.97926 3.73199 5.57101 2.22165Z" fill="black"/>
<path d="M7.56729 2.88937C7.928 2.89083 8.22168 2.59957 8.22314 2.23862C8.2246 1.87791 7.93336 1.58423 7.57241 1.58277C7.2117 1.58131 6.918 1.87255 6.91654 2.2335C6.91532 2.59421 7.20658 2.88791 7.56729 2.88937Z" fill="black"/>
<path d="M12.5858 2.90939C12.9466 2.91085 13.2402 2.61961 13.2417 2.25865C13.2432 1.89795 12.9519 1.60425 12.591 1.60279C12.2303 1.60133 11.9366 1.89258 11.9351 2.25354C11.9339 2.61424 12.2251 2.90792 12.5858 2.90939Z" fill="black"/>
<path d="M10.0795 3.97713C10.0795 3.97713 7.84434 2.24623 7.86408 2.23721C7.84458 2.22795 10.0934 0.515076 10.0934 0.515076C10.3537 1.081 12.322 2.25281 12.3181 2.255C12.3503 2.27377 10.3444 3.41316 10.0795 3.97713Z" fill="black"/>
<path d="M68.371 2.2274C72.4085 -1.00337 73 2.20887 73 2.20887C72.1772 5.49107 68.371 2.2274 68.371 2.2274ZM71.9169 2.07361C71.8318 2.07385 71.7631 2.14307 71.7636 2.22813C71.7638 2.31319 71.8331 2.38192 71.9181 2.38168C72.0032 2.38144 72.0719 2.31197 72.0717 2.22691C72.0714 2.14185 72.0022 2.07312 71.9169 2.07361ZM71.4845 2.22496C69.632 1.26641 69.3717 2.23349 69.3717 2.23349C69.7573 3.21715 71.4845 2.22496 71.4845 2.22496Z" fill="black"/>
<path d="M68.0719 2.66852C67.8369 2.66949 67.6456 2.47988 67.6447 2.24493C67.6437 2.00999 67.8333 1.81867 68.0682 1.81769C68.3032 1.81672 68.4945 2.00632 68.4955 2.24151C68.4965 2.47646 68.3068 2.66754 68.0719 2.66852Z" fill="black"/>
<path d="M12.589 2.02527H67.645V2.48736H12.589V2.02527Z" fill="black"/>
</svg>
