<svg width="73" height="5" viewBox="0 0 73 5" fill="none" xmlns="http://www.w3.org/2000/svg">
<path d="M73 2.18388C73 2.18388 72.0916 -2.74881 65.8918 2.2124C65.8918 2.2124 71.7368 7.22405 73 2.18388ZM71.5747 2.21167C71.5752 2.3423 71.4697 2.44856 71.339 2.44905C71.2084 2.44954 71.1021 2.34401 71.1016 2.21362C71.1012 2.08298 71.2067 1.97672 71.3371 1.97623C71.468 1.9755 71.5742 2.08103 71.5747 2.21167ZM67.429 2.22165C67.429 2.22165 67.8285 0.736901 70.6732 2.20874C70.6732 2.20874 68.0207 3.73199 67.429 2.22165Z" fill="black"/>
<path d="M65.4327 2.88937C65.072 2.89083 64.7783 2.59957 64.7769 2.23862C64.7754 1.87791 65.0666 1.58423 65.4276 1.58277C65.7883 1.58131 66.082 1.87255 66.0835 2.2335C66.0847 2.59421 65.7934 2.88791 65.4327 2.88937Z" fill="black"/>
<path d="M60.4142 2.90939C60.0534 2.91085 59.7598 2.61961 59.7583 2.25865C59.7568 1.89795 60.0481 1.60425 60.409 1.60279C60.7697 1.60133 61.0634 1.89258 61.0649 2.25354C61.0661 2.61424 60.7749 2.90792 60.4142 2.90939Z" fill="black"/>
<path d="M62.9205 3.97713C62.9205 3.97713 65.1557 2.24623 65.1359 2.23721C65.1554 2.22795 62.9066 0.515076 62.9066 0.515076C62.6463 1.081 60.678 2.25281 60.6819 2.255C60.6497 2.27377 62.6556 3.41316 62.9205 3.97713Z" fill="black"/>
<path d="M4.629 2.2274C0.591508 -1.00337 0 2.20887 0 2.20887C0.822805 5.49107 4.629 2.2274 4.629 2.2274ZM1.08309 2.07361C1.16815 2.07385 1.23689 2.14307 1.2364 2.22813C1.23616 2.31319 1.16693 2.38192 1.08187 2.38168C0.996814 2.38144 0.928083 2.31197 0.928327 2.22691C0.92857 2.14185 0.99779 2.07312 1.08309 2.07361ZM1.51547 2.22496C3.368 1.26641 3.62828 2.23349 3.62828 2.23349C3.24271 3.21715 1.51547 2.22496 1.51547 2.22496Z" fill="black"/>
<path d="M4.9281 2.66852C5.16305 2.66949 5.35437 2.47988 5.35535 2.24493C5.35632 2.00999 5.16671 1.81867 4.93176 1.81769C4.69681 1.81672 4.5055 2.00632 4.50452 2.24151C4.50355 2.47646 4.69316 2.66754 4.9281 2.66852Z" fill="black"/>
<path d="M60.411 2.02527H5.35498V2.48736H60.411V2.02527Z" fill="black"/>
</svg>
