<svg width="9" height="346" viewBox="0 0 9 346" fill="none" xmlns="http://www.w3.org/2000/svg">
<path d="M4.96202 -8.66079e-05C4.96202 -8.66079e-05 14.0825 1.67944 4.90929 13.1428C4.90929 13.1428 -4.35722 2.33558 4.96202 -8.66079e-05ZM4.91064 2.63527C4.6691 2.63437 4.47262 2.82948 4.47172 3.07103C4.47082 3.31257 4.66595 3.50905 4.90704 3.50995C5.14858 3.51085 5.34506 3.31572 5.34596 3.07463C5.34731 2.83264 5.15218 2.63617 4.91064 2.63527ZM4.89219 10.3007C4.89219 10.3007 7.63748 9.56204 4.91606 4.30217C4.91606 4.30217 2.09957 9.20651 4.89219 10.3007Z" fill="#523329"/>
<path d="M3.65758 13.9917C3.65488 14.6586 4.19342 15.2016 4.86081 15.2043C5.52776 15.207 6.07077 14.6685 6.07348 14.0011C6.07618 13.3342 5.53767 12.7911 4.87027 12.7884C4.20333 12.7862 3.66029 13.3247 3.65758 13.9917Z" fill="#523329"/>
<path d="M3.6206 23.2712C3.61789 23.9382 4.1564 24.4812 4.8238 24.4839C5.49075 24.4866 6.03379 23.9481 6.03649 23.2807C6.03919 22.6137 5.50066 22.0707 4.83326 22.068C4.16631 22.0658 3.6233 22.6043 3.6206 23.2712Z" fill="#523329"/>
<path d="M1.64628 18.637C1.64628 18.637 4.84672 14.5042 4.86339 14.5407C4.88052 14.5046 8.04761 18.6627 8.04761 18.6627C7.00122 19.144 4.83455 22.7834 4.8305 22.7761C4.7958 22.8356 2.68907 19.1269 1.64628 18.637Z" fill="#523329"/>
<path d="M4.98626 337.441C10.9599 344.906 5.02053 346 5.02053 346C-1.04824 344.479 4.98626 337.441 4.98626 337.441ZM5.27063 343.997C5.27018 343.84 5.14219 343.713 4.98491 343.714C4.82764 343.714 4.70056 343.842 4.70101 344C4.70146 344.157 4.8299 344.284 4.98717 344.284C5.14444 344.283 5.27154 344.155 5.27063 343.997ZM4.99077 343.198C6.76314 339.773 4.97501 339.291 4.97501 339.291C3.15623 340.004 4.99077 343.198 4.99077 343.198Z" fill="#523329"/>
<path d="M3.6009 336.097C3.59781 335.352 4.1994 334.745 4.94485 334.742C5.69029 334.739 6.29731 335.34 6.3004 336.086C6.3035 336.831 5.70192 337.438 4.9557 337.441C4.21026 337.444 3.60399 336.843 3.6009 336.097Z" fill="#523329"/>
<path d="M5.6256 23.6211L5.62561 335.417L4.27583 335.417L4.27582 23.6211L5.6256 23.6211Z" fill="#523329"/>
</svg>
