<svg width="101" height="7" viewBox="0 0 101 7" fill="none" xmlns="http://www.w3.org/2000/svg">
<path d="M0.000124931 3.02154C0.000124931 3.02154 1.25688 -3.80315 9.83469 3.06099C9.83469 3.06099 1.74786 9.99493 0.000124931 3.02154ZM1.97211 3.05998C1.97143 3.24072 2.11743 3.38774 2.29818 3.38842C2.47892 3.38909 2.62594 3.24308 2.62661 3.06268C2.62729 2.88194 2.48128 2.73492 2.30087 2.73424C2.11979 2.73323 1.97278 2.87924 1.97211 3.05998ZM7.70796 3.07379C7.70796 3.07379 7.15527 1.01955 3.21942 3.05593C3.21942 3.05593 6.88923 5.16345 7.70796 3.07379Z" fill="white"/>
<path d="M10.4695 3.99771C10.9686 3.99973 11.3749 3.59676 11.3769 3.09736C11.3789 2.5983 10.976 2.19197 10.4766 2.18995C9.97753 2.18793 9.57118 2.59088 9.56916 3.09028C9.56748 3.58934 9.97045 3.99569 10.4695 3.99771Z" fill="white"/>
<path d="M17.413 4.02505C17.9121 4.02708 18.3184 3.62412 18.3204 3.12472C18.3225 2.62566 17.9195 2.21932 17.4201 2.21729C16.921 2.21527 16.5147 2.61824 16.5127 3.11764C16.511 3.61671 16.914 4.02303 17.413 4.02505Z" fill="white"/>
<path d="M13.9454 5.50238C13.9454 5.50238 10.8529 3.10756 10.8802 3.09508C10.8532 3.08227 13.9646 0.712402 13.9646 0.712402C14.3247 1.49539 17.048 3.11666 17.0426 3.1197C17.0871 3.14566 14.3119 4.72209 13.9454 5.50238Z" fill="white"/>
<path d="M94.5954 3.08171C100.181 -1.38827 101 3.05606 101 3.05606C99.8615 7.5972 94.5954 3.08171 94.5954 3.08171ZM99.5014 2.86892C99.3837 2.86926 99.2886 2.96503 99.2892 3.08272C99.2896 3.2004 99.3854 3.2955 99.503 3.29516C99.6207 3.29482 99.7158 3.19871 99.7155 3.08103C99.7151 2.96335 99.6194 2.86824 99.5014 2.86892ZM98.9031 3.07833C96.34 1.75211 95.9799 3.09013 95.9799 3.09013C96.5134 4.45108 98.9031 3.07833 98.9031 3.07833Z" fill="white"/>
<path d="M94.1815 3.69182C93.8564 3.69317 93.5917 3.43084 93.5903 3.10577C93.589 2.7807 93.8513 2.516 94.1764 2.51465C94.5015 2.5133 94.7662 2.77563 94.7675 3.10104C94.7689 3.4261 94.5065 3.69047 94.1815 3.69182Z" fill="white"/>
<path d="M17.4173 2.80176H93.5908V3.4411H17.4173V2.80176Z" fill="white"/>
</svg>
