<svg width="101" height="7" viewBox="0 0 101 7" fill="none" xmlns="http://www.w3.org/2000/svg">
<path d="M101 3.02154C101 3.02154 99.743 -3.80315 91.1652 3.06099C91.1652 3.06099 99.252 9.99493 101 3.02154ZM99.0278 3.05998C99.0285 3.24072 98.8824 3.38774 98.7017 3.38842C98.521 3.38909 98.3739 3.24308 98.3733 3.06268C98.3726 2.88194 98.5186 2.73492 98.699 2.73424C98.8801 2.73323 99.0271 2.87924 99.0278 3.05998ZM93.2919 3.07379C93.2919 3.07379 93.8446 1.01955 97.7805 3.05593C97.7805 3.05593 94.1107 5.16345 93.2919 3.07379Z" fill="white"/>
<path d="M90.5304 3.99771C90.0313 3.99973 89.625 3.59676 89.623 3.09736C89.6209 2.5983 90.0239 2.19197 90.5233 2.18995C91.0224 2.18793 91.4287 2.59088 91.4307 3.09028C91.4324 3.58934 91.0294 3.99569 90.5304 3.99771Z" fill="white"/>
<path d="M83.5869 4.02505C83.0878 4.02708 82.6815 3.62412 82.6795 3.12472C82.6774 2.62566 83.0804 2.21932 83.5798 2.21729C84.0788 2.21527 84.4852 2.61824 84.4872 3.11764C84.4889 3.61671 84.0859 4.02303 83.5869 4.02505Z" fill="white"/>
<path d="M87.0545 5.50238C87.0545 5.50238 90.147 3.10756 90.1197 3.09508C90.1467 3.08227 87.0353 0.712402 87.0353 0.712402C86.6751 1.49539 83.9519 3.11666 83.9573 3.1197C83.9127 3.14566 86.6879 4.72209 87.0545 5.50238Z" fill="white"/>
<path d="M6.40452 3.08171C0.818389 -1.38827 0 3.05606 0 3.05606C1.1384 7.5972 6.40452 3.08171 6.40452 3.08171ZM1.49853 2.86892C1.61621 2.86926 1.71131 2.96503 1.71064 3.08272C1.7103 3.2004 1.61452 3.2955 1.49684 3.29516C1.37915 3.29482 1.28406 3.19871 1.2844 3.08103C1.28474 2.96335 1.38051 2.86824 1.49853 2.86892ZM2.09674 3.07833C4.65984 1.75211 5.01995 3.09013 5.01995 3.09013C4.48649 4.45108 2.09674 3.07833 2.09674 3.07833Z" fill="white"/>
<path d="M6.81842 3.69182C7.14348 3.69317 7.40819 3.43084 7.40954 3.10577C7.41088 2.7807 7.14855 2.516 6.82348 2.51465C6.49842 2.5133 6.23371 2.77563 6.23237 3.10104C6.23102 3.4261 6.49335 3.69047 6.81842 3.69182Z" fill="white"/>
<path d="M83.5826 2.80176H7.40906V3.4411H83.5826V2.80176Z" fill="white"/>
</svg>
